<svg width="239" height="479" viewBox="0 0 239 479" fill="none" xmlns="http://www.w3.org/2000/svg">
<path opacity="0.12" d="M72.9002 166.362C98.7088 140.553 140.554 140.554 166.362 166.362C140.554 140.554 140.554 98.7088 166.362 72.9002L239.262 -6.45112e-06L312.163 72.9002C337.971 98.7088 337.971 140.553 312.163 166.362C337.971 140.553 379.816 140.553 405.624 166.362L478.525 239.262L405.624 312.163C379.816 337.971 337.971 337.971 312.163 312.163C337.971 337.971 337.971 379.816 312.163 405.624L239.262 478.525L166.362 405.624C140.554 379.816 140.554 337.971 166.362 312.163C140.554 337.971 98.7088 337.971 72.9002 312.163L0 239.262L72.9002 166.362Z" fill="url(#paint0_linear_2_56)"/>
<defs>
<linearGradient id="paint0_linear_2_56" x1="119.631" y1="119.631" x2="358.893" y2="358.893" gradientUnits="userSpaceOnUse">
<stop stop-color="#899CF8"/>
<stop offset="1" stop-color="#515C92"/>
</linearGradient>
</defs>
</svg>
