<svg width="100" height="100" viewBox="0 0 100 100" fill="none" xmlns="http://www.w3.org/2000/svg">
<path d="M50.9417 0H51.4602C51.6665 0.130562 52.3666 0.448128 52.632 0.586558C53.7436 1.16631 54.8717 1.69921 55.9592 2.32974C58.3709 3.7282 60.4961 5.31892 62.5419 7.21305C63.6787 8.26547 64.7164 9.48879 65.811 10.5836C68.7548 10.3438 70.9613 10.2082 73.9114 10.5751C76.0008 10.8349 81.7362 11.8518 83.3589 13.002C84.0112 13.4646 84.3214 14.477 84.63 15.1934C86.0315 18.4513 87.24 21.9992 87.6237 25.5441C87.6972 26.2241 87.8777 30.2493 88.0918 30.4992C88.1071 30.5172 88.1245 30.5336 88.1405 30.5509C88.8911 31.3661 90.0123 31.8613 90.8524 32.5933C93.9087 35.2043 96.5739 38.2485 98.7653 41.6309C99.197 42.3112 99.7001 43.0922 100 43.8374C99.5457 47.3905 97.208 52.6887 95.3348 55.7986C94.4481 57.2699 93.3168 58.7422 92.275 60.1129C93.9764 66.0778 94.3047 71.9041 93.094 78.0076C92.4541 78.7643 91.4006 79.4072 90.5554 79.9568C86.5637 82.5511 81.4326 84.9294 76.7179 85.5914C76.0882 87.0153 75.374 88.3996 74.5805 89.7382C72.5608 93.1444 70.4447 95.7615 67.5456 98.4396C65.2742 100.538 65.5012 100.042 62.5194 99.6548C58.3528 99.1133 54.4086 98.0216 50.6333 96.134C49.932 95.7836 49.1884 95.4243 48.5475 94.9702C47.1725 95.799 43.8409 97.0973 42.2845 97.5014C38.9596 98.3654 34.5498 99.1743 31.1266 98.9914C30.5841 98.5946 29.9996 97.9914 29.5148 97.5109C26.6667 94.6381 24.2966 91.3208 22.4958 87.6861C22.0194 86.7457 21.3242 84.7722 20.8704 84.0316L20.8332 83.9721C17.9524 83.2087 15.1598 82.1404 12.5023 80.7834C10.9683 79.9869 5.50036 76.8166 5.01326 75.2178C4.81391 74.5639 4.79256 73.827 4.73642 73.1463C4.38163 68.8448 4.85384 64.295 6.02183 60.1432C6.25013 59.3316 6.47622 58.4568 6.86272 57.7059C3.25836 53.0037 0.910294 46.7514 0 40.9213C1.74811 38.0231 3.87655 35.5809 6.27993 33.2301C7.07172 32.4557 7.87956 31.6575 8.7537 30.9783C9.92268 30.0699 11.2251 29.3622 12.4062 28.4883C12.5233 28.4018 12.6766 28.2961 12.7376 28.1603C13.0256 27.5203 13.0261 25.8048 13.1383 25.0312C13.7339 20.9251 15.1234 16.9636 16.9721 13.2696C17.315 12.5845 17.7188 11.587 18.3485 11.13C20.1615 9.8142 28.6777 9.05699 31.1237 9.13421C32.8185 9.1877 34.4607 9.49026 36.1275 9.74948C36.6107 9.25904 36.9735 8.78066 37.5291 8.24519C40.2097 5.68259 43.2677 3.5549 46.5943 1.93796C47.5253 1.48693 48.5017 1.10259 49.4451 0.68364C49.8981 0.482497 50.571 0.27786 50.9417 0ZM30.6022 26.606C30.161 29.1473 29.846 31.2481 29.8165 33.8602C29.8136 34.8667 29.8227 35.8731 29.8436 36.8793C29.8899 39.0703 30.2099 38.8736 28.1008 39.6848C24.8476 40.936 22.2237 42.9204 19.4154 44.9036C20.3058 46.338 20.9788 47.6736 21.9731 49.115C23.4102 51.1984 24.9426 52.602 26.5572 54.3924C25.7075 56.5927 22.8006 63.2032 22.5939 66.0435C22.5851 66.1629 23.2125 66.3903 23.3193 66.4233C24.242 66.7362 25.1739 67.0587 26.1074 67.3439C27.6452 67.8014 29.2117 68.1539 30.7965 68.3988C31.6183 68.5265 33.5864 68.7309 34.2417 68.9787C34.6451 69.9272 34.8938 71.1353 35.1478 72.1354C35.8079 74.7343 36.7672 77.1861 37.991 79.5644C38.1475 79.8686 38.2571 80.1412 38.3476 80.4777C39.4881 79.8392 41.6908 79.1839 43.029 78.527C45.2501 77.4374 46.9263 76.1355 48.9969 74.943C49.1782 74.9313 49.3011 74.9672 49.4523 75.0694C51.1242 76.1987 52.7289 77.4616 54.4718 78.4829C56.1105 79.4432 57.8659 80.2419 59.6117 80.9803C60.9901 78.5601 62.0204 76.5917 62.9788 73.9394C63.3475 72.9188 63.9641 70.6071 64.3776 69.7787C65.8517 69.5006 68.0037 69.5473 69.5268 69.3267C70.5313 69.1812 75.6164 68.2616 76.1479 67.5779C76.2105 67.2713 76.0285 66.5365 75.9659 66.1741C75.331 62.6867 74.2572 59.2955 72.7706 56.0825C74.0636 54.6625 75.4308 53.3667 76.6932 51.9521C78.1215 50.3301 79.3978 48.5775 80.5051 46.7169C78.4426 44.6549 75.6339 42.8989 73.1273 41.4364C72.4696 41.0526 70.9615 40.4185 70.4482 40.0051C70.5756 36.5671 71.1434 33.3485 70.6612 29.868C70.5832 29.305 70.4766 28.3953 70.4733 27.8422C66.1675 27.6836 62.5784 28.2578 58.4328 29.3032C56.7934 26.8799 55.1961 24.3547 53.1336 22.2722C52.802 21.9374 51.0121 20.0421 50.6894 19.9656C48.578 21.6676 46.8147 23.3241 45.0903 25.4579C44.2863 26.4208 43.6226 27.5017 42.8252 28.4651C42.6547 28.6713 42.3775 28.8149 42.1158 28.7472C40.5136 28.3329 39.0773 27.8001 37.4402 27.4827C36.2018 27.231 34.9508 27.0473 33.6926 26.9322C32.7799 26.8426 31.4737 26.7661 30.6022 26.606ZM3.57991 41.688C4.24607 44.3623 4.80411 46.657 5.95715 49.2003C6.57107 50.5544 7.06952 51.404 7.73971 52.657C8.00398 53.1177 8.49561 53.9114 8.66488 54.3583C9.74344 51.291 13.3013 46.3341 15.5743 44.0543C14.3948 41.35 13.1306 35.1346 13.1662 32.2439L13.0815 32.1668L13.0306 32.2157C12.5712 32.6496 11.9609 32.9864 11.4557 33.3703C8.48819 35.6251 5.67728 38.5806 3.57991 41.688ZM8.25821 73.8438C11.0615 76.0429 14.0173 77.962 17.3674 79.1772C17.6923 79.2948 18.8186 79.7268 19.1083 79.7768C19.464 79.8958 19.8211 80.0112 20.1791 80.1236C19.1875 77.0774 18.7663 71.3128 19.0291 68.1803C16.4398 66.8969 13.8129 64.6438 11.6597 62.7038C11.1784 62.2703 9.93127 60.7583 9.52045 60.4936C8.69247 63.6662 8.24918 66.0753 8.16385 69.387C8.12279 70.9784 8.22996 72.3058 8.25821 73.8438ZM20.5042 13.9959C19.0008 16.6763 17.8936 19.5642 17.2178 22.5678C16.9698 23.692 16.6866 25.7019 16.3933 26.6534L16.3756 26.7127C17.4187 26.1978 19.4134 25.2503 20.5636 25.0367C21.9466 24.4293 24.1164 24.0369 25.6287 23.6865C26.3585 23.5174 27.419 23.4696 28.147 23.2458C28.2726 23.2072 28.5245 22.6058 28.5826 22.4407C29.532 19.7419 31.9959 14.9023 33.9278 12.8271C31.982 12.861 29.8148 12.525 27.8599 12.7542C25.5403 12.9325 22.6999 13.2338 20.5042 13.9959ZM24.9511 84.7715C26.6601 88.3261 29.3057 92.8197 32.4323 95.464C32.481 95.5051 32.7466 95.4867 32.8316 95.4919C35.7622 95.3905 38.6683 94.9144 41.4804 94.0753C42.7786 93.6742 44.0221 93.1562 45.2767 92.7528C42.7275 90.5574 40.4119 88.8014 38.3656 85.9985C38.2055 85.7795 37.2124 84.443 37.0366 84.4467C32.1504 85.3629 29.8913 85.2277 24.9511 84.7715ZM40.1378 10.4778C43.6429 11.6026 48.1664 13.2464 51.08 15.5971C51.447 15.5602 52.8326 14.6687 53.2723 14.4413C56.0809 12.9887 58.6961 12.0666 61.7902 11.3249C59.3892 8.70337 55.9344 6.14207 52.7974 4.53753C52.4104 4.33961 51.445 3.80317 51.1012 3.68402C48.0003 5.05605 45.7798 6.1014 43.0073 8.14622C42.1615 8.77001 40.8506 10.0028 40.1378 10.4778ZM59.8365 25.1699L59.9207 25.3583C60.2029 25.4433 60.5382 25.255 60.8419 25.1956C63.9378 24.5897 66.9097 24.4135 70.0562 24.3371C68.4475 20.6125 67.2215 17.6365 64.7827 14.2847C64.6531 14.2662 64.6706 14.2451 64.5753 14.2833L64.5183 14.2999C63.8345 14.4949 63.0085 14.6104 62.3036 14.7814C61.4538 14.9875 60.6595 15.2259 59.8268 15.4995C58.5288 15.9172 57.2567 16.413 56.0174 16.9842C55.2737 17.3287 54.5206 17.7471 53.779 18.067C55.628 19.7358 58.5936 22.995 59.8365 25.1699ZM76.6706 71.2089C73.2766 72.097 70.5585 72.9267 66.9372 73.0373C66.1723 75.6697 65.1254 78.2111 63.8151 80.6144C63.6208 80.9714 63.271 81.657 63.0413 81.9516C63.4543 82.0603 63.7887 82.15 64.2137 82.2176C64.7938 82.269 65.883 82.4167 66.4639 82.5408C69.2594 83.1382 71.9981 82.5107 74.7137 82.5959L74.7319 82.5063C74.8447 81.9663 75.0165 81.402 75.1767 80.8774C75.9921 78.1993 76.5927 75.4397 76.747 72.6365C76.7725 72.1784 76.7864 71.7175 76.8846 71.2647C76.7689 71.1696 76.8359 71.1944 76.6706 71.2089ZM79.4786 66.5299C80.0836 66.1721 80.8917 65.7231 81.4508 65.3251C84.5514 63.4738 86.3372 61.6707 88.9057 59.2895C87.4103 56.1303 86.2521 53.1086 84.0687 50.2718C83.9071 50.0609 83.2781 49.1909 83.1114 49.0534C81.6546 51.5447 78.9493 54.8403 76.8213 56.8413C77.716 59.0901 79.5193 64.1873 79.4786 66.5299ZM49.2532 91.0607C50.1902 90.2709 51.2217 89.6853 52.1984 88.9734C54.0701 87.6082 56.293 85.7656 57.7829 83.9655C55.6603 83.3564 50.8857 80.5806 49.1153 79.045C49.0707 79.0068 49.0638 79.0068 49.0128 78.9781C46.8984 80.6489 43.1676 82.3961 40.5952 83.2844C42.9386 85.9389 45.0328 88.3511 47.9869 90.3701C48.308 90.5898 48.8933 91.1687 49.2532 91.0607ZM41.1842 24.8828C41.3352 24.6733 41.4594 24.4851 41.5986 24.2686C43.139 22.2365 45.8966 19.1242 48.0091 17.7166C45.4367 16.0379 42.1004 14.6851 39.1455 13.8548C38.8773 13.7794 37.9512 13.479 37.73 13.4894C37.1449 14.3512 36.4529 15.1435 35.8705 15.9918C34.571 17.8845 33.3326 19.9622 32.4317 22.0792C32.3134 22.357 31.9763 23.0205 32.0163 23.2538C34.7595 23.4391 38.6277 23.9209 41.1842 24.8828ZM23.9202 81.1147C25.5771 81.1507 27.7908 81.596 29.6185 81.6474C31.5926 81.7025 32.9964 81.4387 34.8062 81.3873L34.9249 81.2786C34.5724 80.3793 33.8612 79.1611 33.5525 78.3705C32.956 76.843 31.7352 73.5896 31.5949 72.0519C28.8572 71.9191 25.0662 70.7836 22.5093 69.82C22.4601 72.5368 22.609 74.6344 23.1236 77.3382C23.3525 78.541 23.7588 79.9612 23.9202 81.1147ZM26.3823 27.0887C23.7449 27.573 18.883 28.95 16.5728 30.4232C16.7633 31.5582 16.711 33.3625 16.8518 34.6484C17.0959 36.8771 17.4865 38.5279 18.0619 40.674C18.1429 40.9735 18.1867 41.1758 18.2388 41.4819C20.1586 39.8528 22.0319 38.8435 24.2466 37.66C24.8518 37.3365 25.9075 36.9412 26.4008 36.643C25.9357 34.2289 26.5625 29.5731 26.9181 27.0935C26.7408 26.9942 26.6211 27.0561 26.3823 27.0887ZM17.7439 63.2785C18.2751 63.6402 18.8923 64.0751 19.4001 64.4688C19.7097 61.8025 21.4359 57.7369 22.5458 55.342C21.0875 53.5728 19.6438 51.9894 18.4233 50.0365C18.1735 49.6368 17.1326 47.8027 16.9406 47.6509C15.619 49.4502 14.7136 50.412 13.5445 52.4132C13.0926 53.1769 12.6677 53.9566 12.2705 54.7507C11.93 55.4449 11.4855 56.4499 11.1019 57.088C12.8714 58.9432 15.5665 61.9218 17.7439 63.2785ZM83.0459 42.0868C84.2311 38.2342 84.515 36.2235 84.898 32.2674C84.1132 31.9968 82.8253 31.1856 81.9873 30.7932C79.6023 29.6762 76.6247 28.6269 74.0359 28.1802C74.1844 31.3592 74.7173 34.8075 74.0206 38.0395C75.912 38.844 81.1188 42.2457 82.4205 43.8283C82.5406 43.4853 82.9112 42.3563 83.0459 42.0868ZM89.4393 63.6084C87.6892 65.318 85.4898 66.9379 83.4274 68.2413C82.4955 68.8305 81.1173 69.5062 80.2794 70.0939C80.5255 72.7081 79.6162 79.3411 78.5241 81.7098L79.2449 81.4189C82.1162 80.7246 85.8335 78.8532 88.3189 77.1935C88.8147 76.8628 89.4954 76.4543 89.9409 76.0796C90.0014 74.7997 90.0997 73.3711 90.2059 72.0877C90.2918 71.0443 90.0917 63.8011 89.4393 63.6084ZM92.0275 54.4457C93.699 51.8009 94.9992 48.9348 95.8903 45.9293C96.0148 45.5157 96.2835 44.6775 96.3184 44.2696C94.8376 41.464 92.0544 38.3189 89.6992 36.243C89.3571 35.9413 88.5351 35.2082 88.1573 35.0082C88.0335 37.4816 87.0354 41.1457 86.2324 43.4496C85.9376 44.2944 85.4462 45.3204 85.203 46.0882C86.3314 47.5516 87.2618 48.6236 88.2898 50.2497C89.5151 52.1888 90.2554 53.824 91.2361 55.8595C91.4727 55.3108 91.7122 54.9493 92.0275 54.4457ZM63.9539 96.3361C64.2662 96.3838 64.5102 96.4522 64.7667 96.2266C67.4557 93.86 69.7329 91.1136 71.546 88.0087C71.9101 87.3849 72.2564 86.764 72.6291 86.1697C70.5862 86.5517 66.1378 86.1483 64.0978 85.7486C63.5753 85.6458 61.6388 85.1792 61.3112 85.2086C58.668 88.271 55.8415 91.0894 52.3224 93.1393C55.2223 94.4229 57.8139 95.4236 60.9679 95.932C61.9588 96.0914 62.9681 96.1781 63.9539 96.3361ZM68.6493 13.831C70.1874 16.0543 73.3749 22.0562 73.6908 24.6551C76.0642 24.7196 80.6325 26.4385 82.8733 27.4045C83.241 27.5629 84.1699 28.1463 84.3811 27.9929L84.3629 27.9114C84.1634 26.9712 84.1299 25.8421 83.9603 24.845C83.3982 21.5472 82.4766 18.7995 81.0576 15.7859C78.2344 14.4963 74.5652 14.032 71.4923 13.8691C70.6135 13.8225 69.4258 13.8991 68.6493 13.831Z" fill="url(#paint0_linear_1_26)"/>
<path d="M49.8641 43.7125L49.9914 43.6949C51.2056 44.1437 56.2215 48.8741 56.1717 50.0479C55.9073 50.7481 55.0727 51.633 54.596 52.2144C53.3125 53.7791 51.7504 54.9586 50.2017 56.2349C50.118 56.2578 49.9855 56.3069 49.9066 56.2537C47.7529 54.8024 45.0413 52.1712 43.7553 49.9611C45.032 47.5895 47.6802 45.2357 49.8641 43.7125Z" fill="url(#paint1_linear_1_26)"/>
<defs>
<linearGradient id="paint0_linear_1_26" x1="50" y1="0" x2="50" y2="100" gradientUnits="userSpaceOnUse">
<stop stop-color="#899CF8"/>
<stop offset="1" stop-color="#FAFAFA"/>
</linearGradient>
<linearGradient id="paint1_linear_1_26" x1="49.9637" y1="43.6949" x2="49.9637" y2="56.2776" gradientUnits="userSpaceOnUse">
<stop stop-color="#899CF8"/>
<stop offset="1" stop-color="#FAFAFA"/>
</linearGradient>
</defs>
</svg>
